<svg version="1.1" id="Layer_1" xmlns="http://www.w3.org/2000/svg" xmlns:xlink="http://www.w3.org/1999/xlink" x="0px" y="0px"
	 width="100%" viewBox="0 0 500 500" enable-background="new 0 0 500 500" xml:space="preserve">
<path fill="#000000" opacity="1.000000" stroke="none" 
	d="
M314.000000,501.000000 
	C209.333359,501.000000 105.166718,501.000000 1.000056,501.000000 
	C1.000037,334.333405 1.000037,167.666794 1.000019,1.000145 
	C167.666565,1.000097 334.333130,1.000097 500.999756,1.000048 
	C500.999847,167.666519 500.999847,334.333038 500.999939,500.999786 
	C438.833344,501.000000 376.666656,501.000000 314.000000,501.000000 
M305.003265,243.000519 
	C305.003265,243.000519 304.980927,242.968124 304.472473,243.106430 
	C304.300537,243.399811 304.128601,243.693192 304.007629,243.976700 
	C304.007629,243.976700 303.974823,243.937012 303.268372,244.009109 
	C294.369995,250.659607 285.557434,257.428986 276.552307,263.931641 
	C264.228516,272.830688 251.680313,281.421051 239.443314,290.435577 
	C237.789474,291.653900 237.383759,294.566528 236.400116,296.694641 
	C238.480011,296.699127 240.572830,296.840332 242.633850,296.645233 
	C243.542603,296.559204 244.389984,295.796112 245.259674,295.330017 
	C260.160034,287.344513 275.422211,280.014069 288.655212,269.189362 
	C294.687195,264.255157 301.612579,260.415649 307.666138,255.504486 
	C312.971649,251.200195 317.624847,246.091797 322.614685,241.274490 
	C322.614685,241.274490 322.552521,241.223511 323.150238,241.118591 
	C324.371460,239.686630 325.592682,238.254654 327.206146,236.279160 
	C332.476898,229.485428 337.747620,222.691681 343.744171,215.748398 
	C346.746582,209.694305 349.891876,203.705170 352.687500,197.557037 
	C353.969940,194.736679 354.565521,191.603973 355.800873,187.530273 
	C352.147186,187.721497 349.841675,187.927689 347.535370,187.936844 
	C345.550507,187.944717 342.435150,188.659103 345.619659,184.764801 
	C348.804688,181.500473 351.989685,178.236145 355.760376,174.694641 
	C368.157257,161.556198 372.551086,144.761810 377.019409,128.009903 
	C377.019409,128.009903 377.034363,128.069839 377.491760,127.886581 
	C377.333313,127.557030 377.174835,127.227478 377.281067,126.304672 
	C378.499207,122.923820 379.717316,119.542969 381.476318,115.871155 
	C381.326874,115.231361 381.177429,114.591576 380.989685,113.549835 
	C380.989685,113.549835 380.934387,113.149879 381.663177,112.949844 
	C382.782196,109.096992 384.148163,105.292000 384.908264,101.369598 
	C385.249939,99.606445 385.006042,96.892868 383.887665,95.916199 
	C382.740936,94.914772 379.860687,94.813736 378.346039,95.556381 
	C375.646271,96.880104 373.403503,99.135773 370.352570,101.064735 
	C369.876495,101.378143 369.400452,101.691551 368.330017,102.255981 
	C367.551758,103.149750 366.773468,104.043518 365.285400,105.039352 
	C361.070892,107.884514 356.668427,110.490448 352.680481,113.623955 
	C344.020203,120.428749 335.449158,127.359375 327.069824,134.506119 
	C318.061707,142.189163 308.996277,149.853104 300.544647,158.126846 
	C292.319611,166.178741 284.644501,174.822876 277.107025,183.534958 
	C272.659180,188.675980 268.947754,194.454147 264.458008,200.088516 
	C264.169922,200.266678 264.007294,200.524124 263.347687,201.173080 
	C261.222351,204.431335 259.097015,207.689606 256.947083,210.954254 
	C256.947083,210.954254 256.937653,210.977844 256.307465,211.228195 
	C255.493500,212.807617 254.679550,214.387024 253.253342,216.264862 
	C243.810715,233.632172 234.197998,250.910202 225.012848,268.412628 
	C221.552353,275.006592 219.082214,282.120331 216.025818,289.749725 
	C215.369888,291.403259 214.753372,293.073669 214.052002,294.707703 
	C206.429123,312.467407 198.792938,330.221375 190.924271,348.525940 
	C190.669556,349.031281 190.414856,349.536621 190.007736,350.736176 
	C189.392639,352.459778 188.777542,354.183350 188.002914,356.704926 
	C187.198578,360.317169 186.394226,363.929382 185.589890,367.541626 
	C186.157730,367.781555 186.725571,368.021484 187.293411,368.261414 
	C195.279602,362.685394 202.452133,356.250549 208.239853,347.234131 
	C211.165283,336.570984 213.984802,325.877075 217.066132,315.259155 
	C218.373901,310.752838 220.230820,306.405884 222.186218,301.336761 
	C225.757462,293.932251 229.328629,286.527710 232.899979,279.123230 
	C238.033356,268.480225 243.233047,257.868378 248.252991,247.172119 
	C249.480713,244.556152 250.119965,241.664017 251.045563,238.437210 
	C251.045563,238.437210 251.086914,237.977173 251.008636,238.008102 
	C251.008636,238.008102 251.039612,238.086349 251.598907,237.864044 
	C252.012054,237.225693 252.425201,236.587326 252.982605,235.534348 
	C252.982605,235.534348 253.059097,235.102066 253.775574,234.968491 
	C254.531235,233.800537 255.241760,232.600357 256.049377,231.469513 
	C266.243469,217.195312 276.377167,202.876907 286.703369,188.698776 
	C289.646820,184.657364 292.889374,180.753189 296.465149,177.268784 
	C305.424500,168.538345 314.525360,159.942429 323.819244,151.569794 
	C329.879883,146.109940 336.342377,141.091675 342.690674,135.957016 
	C348.090363,131.589630 353.584229,127.338684 359.766266,122.938957 
	C362.504211,121.313759 365.242188,119.688560 368.006805,118.852577 
	C366.400421,124.247787 364.794037,129.643005 363.046906,135.819092 
	C359.117737,144.292679 355.409424,152.879364 351.155243,161.186539 
	C349.348572,164.714447 346.397827,167.656448 343.348999,170.986160 
	C342.869202,171.312927 342.389435,171.639694 341.982086,171.978210 
	C341.982086,171.978210 341.993622,171.905746 341.495972,172.081100 
	C341.384521,172.386887 341.273071,172.692673 341.023224,173.421707 
	C341.023224,173.421707 340.970184,173.863846 340.323822,173.988831 
	C339.527069,174.645645 338.730316,175.302460 337.993591,175.981232 
	C337.993591,175.981232 337.998505,175.917450 337.496307,176.094604 
	C337.318756,176.389343 337.141205,176.684067 336.979187,176.960815 
	C336.979187,176.960815 336.949951,176.961121 336.313019,177.005264 
	C335.529419,177.627060 334.745819,178.248871 333.503174,179.052948 
	C333.196960,179.234436 333.021149,179.501678 332.478058,180.076950 
	C332.276428,180.370590 332.074799,180.664246 331.454132,181.025513 
	C331.454132,181.025513 331.053101,181.164597 330.372986,181.230484 
	C328.227417,182.786667 326.081818,184.342850 323.308655,186.197556 
	C321.040253,187.729156 318.692902,189.159317 316.538208,190.836960 
	C315.524994,191.625870 314.106293,193.031296 314.264404,193.905243 
	C314.471558,195.049866 315.976196,196.690857 317.063751,196.807922 
	C320.325409,197.158966 323.655640,196.872940 327.865906,196.968323 
	C329.843109,196.979645 331.856659,196.765121 333.785645,197.075851 
	C335.251495,197.311981 336.609772,198.216049 337.418793,199.175446 
	C336.580231,200.764862 335.741669,202.354279 334.451477,204.093948 
	C334.162689,204.277817 333.998260,204.539795 333.349060,205.175812 
	C325.940948,211.172119 318.532837,217.168427 310.421295,223.049240 
	C308.936523,223.986084 307.451752,224.922943 305.295471,225.984543 
	C304.173859,226.635773 303.052216,227.286987 301.981903,227.949997 
	C301.981903,227.949997 301.941437,227.910217 301.193604,227.999466 
	C295.083588,230.820160 288.973572,233.640839 282.863556,236.461533 
	C288.687683,240.225937 294.355499,238.953339 300.826935,237.970490 
	C304.200623,237.351074 307.574310,236.731659 310.781464,236.673935 
	C310.164398,237.417191 309.547363,238.160431 308.379852,239.141891 
	C307.871155,239.751419 307.362457,240.360947 306.432159,241.102768 
	C306.160004,241.272705 306.014069,241.517792 305.507782,242.078430 
	C305.327759,242.380325 305.147736,242.682220 305.003265,243.000519 
M154.916122,250.113403 
	C154.954742,232.467041 154.993347,214.820679 155.676193,196.692642 
	C156.216400,185.249603 163.222992,180.625031 169.647476,180.111923 
	C175.730194,179.626129 181.929672,179.551605 187.986694,180.177643 
	C191.790039,180.570770 194.285385,179.250748 195.624527,176.411118 
	C197.249969,172.964417 194.823624,168.685760 190.493042,166.167480 
	C187.343338,166.139450 184.190338,166.006897 181.044647,166.106247 
	C175.360931,166.285736 169.681580,166.603775 163.444748,167.089539 
	C149.268311,170.153870 140.775833,183.784149 141.023102,195.854645 
	C141.068741,210.942062 141.114395,226.029495 141.030746,241.962387 
	C140.688477,244.551392 140.126389,247.133286 140.042603,249.730637 
	C139.708252,260.097717 133.340073,268.238037 123.564384,272.139374 
	C120.873207,273.213409 117.976944,276.564209 117.385452,279.341187 
	C116.766479,282.247223 119.010841,285.545502 123.327797,286.719940 
	C125.865074,287.845184 128.402359,288.970398 131.022659,290.795715 
	C132.339371,291.572510 133.656082,292.349304 135.281662,293.770325 
	C136.918060,297.863617 138.554443,301.956879 140.061981,306.974396 
	C140.079468,326.632782 140.096939,346.291138 140.029388,366.646240 
	C140.330276,367.452820 140.631149,368.259369 140.990646,369.930847 
	C140.445541,381.212891 147.911743,391.600769 157.604904,394.585083 
	C163.415497,396.374054 169.795853,396.569031 175.951370,396.900848 
	C180.968002,397.171295 184.409637,393.353912 183.957520,388.765442 
	C183.452255,383.637817 179.869614,383.584869 175.327698,384.028595 
	C174.880615,384.071045 174.433517,384.113495 173.168045,384.030518 
	C163.300690,383.289215 157.163895,380.324615 154.820282,368.851318 
	C154.796677,347.924713 154.773071,326.998138 154.914780,305.446625 
	C154.622910,304.929718 154.331039,304.412842 153.969879,303.113159 
	C152.461258,293.490601 147.628372,285.862610 140.035080,279.210876 
	C141.720505,277.148285 143.405945,275.085724 145.698792,272.722382 
	C147.746292,269.434509 150.106186,266.294037 151.747467,262.814545 
	C153.193115,259.749878 153.835556,256.306274 154.947754,252.368103 
	C154.888916,251.927628 154.830078,251.487137 154.916122,250.113403 
M335.052582,369.735748 
	C335.093323,370.227203 335.134064,370.718658 335.053497,371.728027 
	C335.049713,372.082458 335.045898,372.436920 334.484344,373.103729 
	C334.313446,373.692657 334.142517,374.281555 333.361481,375.211792 
	C331.577393,380.047485 326.921417,380.983093 322.211273,382.965271 
	C318.146210,382.973969 314.077301,382.880524 310.017731,383.034180 
	C307.969147,383.111694 305.937531,383.636841 303.175201,384.018341 
	C297.549408,388.154999 297.246582,390.975403 302.228455,395.675476 
	C308.691833,396.118286 315.155090,396.918243 321.618652,396.921204 
	C331.617584,396.925812 339.369537,392.388916 345.162811,383.332367 
	C346.714478,379.198090 348.266144,375.063782 349.957947,370.014709 
	C349.938202,349.014465 349.918457,328.014252 350.057678,306.085052 
	C349.984711,286.727020 349.911743,267.368988 349.968018,247.129181 
	C349.926361,244.759247 349.884705,242.389313 349.945129,239.267075 
	C348.925659,236.688110 347.720917,235.810516 345.662109,238.518845 
	C342.454224,242.738800 339.103149,246.849915 335.084808,251.463623 
	C335.056519,259.100555 334.995087,266.737518 335.005798,274.374390 
	C335.050079,305.918488 335.116180,337.462585 335.052582,369.735748 
z"/>
<path fill="#27B385" opacity="1.000000" stroke="none" 
	d="
M301.987793,395.078094 
	C297.246582,390.975403 297.549408,388.154999 303.877869,384.180542 
	C310.756012,384.443604 317.090881,386.531311 322.964355,382.867828 
	C326.921417,380.983093 331.577393,380.047485 333.836853,375.092957 
	C334.555511,374.246521 334.798828,373.518951 335.042114,372.791351 
	C335.045898,372.436920 335.049713,372.082458 335.438049,371.233948 
	C336.229553,369.032867 336.989838,367.326263 336.991455,365.618896 
	C337.025085,330.100372 336.985046,294.581726 336.903839,259.063232 
	C336.899384,257.115997 336.411011,255.169907 336.065796,252.857147 
	C335.926727,251.996399 335.869751,251.501785 335.812775,251.007156 
	C339.103149,246.849915 342.454224,242.738800 345.662109,238.518845 
	C347.720917,235.810516 348.925659,236.688110 349.589355,239.859344 
	C348.831024,242.172333 348.080139,243.892441 348.076996,245.613922 
	C348.003387,285.803986 347.990021,325.994293 348.079773,366.184235 
	C348.083282,367.767273 349.212921,369.347778 349.817810,370.929474 
	C348.266144,375.063782 346.714478,379.198090 344.615601,383.670410 
	C342.075378,384.787323 339.947784,385.336060 338.123718,386.403564 
	C335.868683,387.723175 334.083221,390.103668 331.713715,390.921356 
	C324.186127,393.519104 316.479065,395.124390 308.354889,393.705566 
	C306.372894,393.359406 304.117493,394.578583 301.987793,395.078094 
z"/>
<path fill="#35B57C" opacity="1.000000" stroke="none" 
	d="
M190.995636,166.854401 
	C194.823624,168.685760 197.249969,172.964417 195.624527,176.411118 
	C194.285385,179.250748 191.790039,180.570770 187.986694,180.177643 
	C181.929672,179.551605 175.730194,179.626129 169.647476,180.111923 
	C163.222992,180.625031 156.216400,185.249603 155.121964,197.225586 
	C154.287323,199.304138 154.006927,200.849731 153.584213,202.736725 
	C153.296707,218.633667 153.114182,234.189133 153.086227,249.744873 
	C153.084274,250.838867 154.223892,251.934921 154.832687,253.030014 
	C153.835556,256.306274 153.193115,259.749878 151.747467,262.814545 
	C150.106186,266.294037 147.746292,269.434509 145.128952,272.739197 
	C144.235107,272.216400 143.737915,271.713593 143.613983,271.131348 
	C142.437469,265.604889 141.284363,265.021088 136.441650,267.697174 
	C134.568787,268.732117 132.634247,269.718323 130.945282,271.010895 
	C126.607048,274.330994 120.509819,276.747253 123.516716,284.263092 
	C123.704666,284.732880 123.163437,285.494385 122.961456,286.120178 
	C119.010841,285.545502 116.766479,282.247223 117.385452,279.341187 
	C117.976944,276.564209 120.873207,273.213409 123.564384,272.139374 
	C133.340073,268.238037 139.708252,260.097717 140.042603,249.730637 
	C140.126389,247.133286 140.688477,244.551392 141.281097,241.156616 
	C141.675781,225.978897 141.832962,211.607010 141.929245,197.234726 
	C141.934418,196.460449 141.428345,195.682770 141.160278,194.906677 
	C140.775833,183.784149 149.268311,170.153870 164.188797,167.013275 
	C173.620438,166.909470 182.308044,166.881943 190.995636,166.854401 
z"/>
<path fill="#1BB18A" opacity="1.000000" stroke="none" 
	d="
M359.036407,123.036224 
	C353.584229,127.338684 348.090363,131.589630 342.690674,135.957016 
	C336.342377,141.091675 329.879883,146.109940 323.819244,151.569794 
	C314.525360,159.942429 305.424500,168.538345 296.465149,177.268784 
	C292.889374,180.753189 289.646820,184.657364 286.703369,188.698776 
	C276.377167,202.876907 266.243469,217.195312 256.049377,231.469513 
	C255.241760,232.600357 254.531235,233.800537 253.288422,234.753128 
	C256.022888,222.375549 262.664948,211.883911 270.574677,201.409271 
	C267.710327,200.669891 266.307709,200.307831 264.905121,199.945770 
	C268.947754,194.454147 272.659180,188.675980 277.107025,183.534958 
	C284.644501,174.822876 292.319611,166.178741 300.544647,158.126846 
	C308.996277,149.853104 318.061707,142.189163 327.069824,134.506119 
	C335.449158,127.359375 344.020203,120.428749 352.680481,113.623955 
	C356.668427,110.490448 361.070892,107.884514 365.607483,105.351341 
	C362.118011,109.460167 358.306427,113.256996 354.482025,117.066612 
	C355.842682,119.548416 361.201202,118.494659 359.036407,123.036224 
z"/>
<path fill="#27B385" opacity="1.000000" stroke="none" 
	d="
M264.681580,200.017151 
	C266.307709,200.307831 267.710327,200.669891 270.574677,201.409271 
	C262.664948,211.883911 256.022888,222.375549 252.930176,234.819916 
	C253.059097,235.102066 252.982605,235.534348 252.651581,235.876785 
	C251.893585,236.841599 251.466614,237.463974 251.039612,238.086365 
	C251.039612,238.086349 251.008636,238.008102 250.980988,238.103271 
	C250.846115,238.443222 250.871597,238.676697 251.029785,238.898834 
	C250.119965,241.664017 249.480713,244.556152 248.252991,247.172119 
	C243.233047,257.868378 238.033356,268.480225 232.899979,279.123230 
	C229.328629,286.527710 225.757462,293.932251 221.745361,301.502655 
	C221.265213,300.468903 221.126663,299.262695 221.205582,298.070862 
	C221.426224,294.739349 221.736832,291.413788 222.071671,287.363190 
	C219.285751,288.133270 217.723175,288.565186 216.160614,288.997101 
	C219.082214,282.120331 221.552353,275.006592 225.012848,268.412628 
	C234.197998,250.910202 243.810715,233.632172 253.884796,215.995941 
	C255.323380,214.143967 256.130524,212.560913 256.937653,210.977844 
	C256.937653,210.977844 256.947083,210.954254 257.266724,210.815567 
	C260.854858,208.146622 264.116455,205.611893 263.970062,200.860855 
	C264.007294,200.524124 264.169922,200.266678 264.681580,200.017151 
z"/>
<path fill="#1BB18A" opacity="1.000000" stroke="none" 
	d="
M322.566223,241.338623 
	C317.624847,246.091797 312.971649,251.200195 307.666138,255.504486 
	C301.612579,260.415649 294.687195,264.255157 288.655212,269.189362 
	C275.422211,280.014069 260.160034,287.344513 245.259674,295.330017 
	C244.389984,295.796112 243.542603,296.559204 242.633850,296.645233 
	C240.572830,296.840332 238.480011,296.699127 236.400116,296.694641 
	C237.383759,294.566528 237.789474,291.653900 239.443314,290.435577 
	C251.680313,281.421051 264.228516,272.830688 276.552307,263.931641 
	C285.557434,257.428986 294.369995,250.659607 303.552429,244.316864 
	C302.192139,247.559692 300.547760,250.494766 298.903412,253.429840 
	C299.493042,253.955841 300.082672,254.481857 300.672302,255.007858 
	C305.683289,251.511932 310.626404,247.912186 315.738159,244.570419 
	C317.826080,243.205444 320.279236,242.399109 322.566223,241.338623 
z"/>
<path fill="#37B679" opacity="1.000000" stroke="none" 
	d="
M216.093216,289.373413 
	C217.723175,288.565186 219.285751,288.133270 222.071671,287.363190 
	C221.736832,291.413788 221.426224,294.739349 221.205582,298.070862 
	C221.126663,299.262695 221.265213,300.468903 221.571335,301.827515 
	C220.230820,306.405884 218.373901,310.752838 217.066132,315.259155 
	C213.984802,325.877075 211.165283,336.570984 207.664124,347.602783 
	C205.671738,348.914856 204.087509,349.681091 202.868881,350.833832 
	C198.704819,354.772675 194.392593,358.051880 188.162460,355.906952 
	C188.777542,354.183350 189.392639,352.459778 190.297592,350.298462 
	C190.778427,349.232819 190.969391,348.604858 191.160370,347.976929 
	C198.792938,330.221375 206.429123,312.467407 214.052002,294.707703 
	C214.753372,293.073669 215.369888,291.403259 216.093216,289.373413 
z"/>
<path fill="#37B679" opacity="1.000000" stroke="none" 
	d="
M140.036148,279.890198 
	C147.628372,285.862610 152.461258,293.490601 153.752594,303.530518 
	C153.366745,303.962616 153.198151,303.977386 152.858032,304.237579 
	C152.725021,305.569458 152.763504,306.655914 152.815643,308.157166 
	C152.832260,309.125244 152.835220,309.678589 152.665314,310.578430 
	C152.324631,312.891510 152.019150,314.857513 152.011169,316.824738 
	C151.955383,330.560120 151.961166,344.295746 151.570480,358.065674 
	C149.303955,359.228271 146.053452,360.092072 145.773392,361.533142 
	C144.843109,366.320129 144.264954,371.402039 144.851532,376.212372 
	C146.276566,387.898590 166.082947,398.744995 176.896011,393.045471 
	C178.235962,392.339203 180.097504,391.265930 180.290497,390.122040 
	C180.483124,388.980164 178.947021,387.488983 178.044205,386.241089 
	C177.479202,385.460114 176.683899,384.845734 175.991943,384.156616 
	C179.869614,383.584869 183.452255,383.637817 183.957520,388.765442 
	C184.409637,393.353912 180.968002,397.171295 175.951370,396.900848 
	C169.795853,396.569031 163.415497,396.374054 157.604904,394.585083 
	C147.911743,391.600769 140.445541,381.212891 141.158066,369.144287 
	C141.253891,364.924042 141.182297,361.490356 141.070435,357.714630 
	C141.057999,356.915314 141.085831,356.457977 141.286041,355.627136 
	C141.767227,341.103973 142.076050,326.954376 142.388351,312.645996 
	C144.942398,313.696350 146.583939,314.593445 148.330353,314.907501 
	C148.691559,314.972473 149.955856,312.858673 149.933960,311.766479 
	C149.737457,301.968323 149.396317,292.172302 141.304871,284.863159 
	C140.471268,284.110138 139.853806,282.991333 139.467773,281.922455 
	C139.273209,281.383728 139.822952,280.576202 140.036148,279.890198 
z"/>
<path fill="#35B57C" opacity="1.000000" stroke="none" 
	d="
M322.590454,241.306549 
	C320.279236,242.399109 317.826080,243.205444 315.738159,244.570419 
	C310.626404,247.912186 305.683289,251.511932 300.672302,255.007858 
	C300.082672,254.481857 299.493042,253.955841 298.903412,253.429840 
	C300.547760,250.494766 302.192139,247.559692 303.905640,244.280823 
	C303.974823,243.937012 304.007629,243.976700 304.186127,243.847504 
	C304.621460,243.510498 304.826904,243.260437 304.980927,242.968124 
	C304.980927,242.968124 305.003265,243.000519 305.193298,242.836792 
	C305.587006,242.394714 305.790680,242.116379 305.994354,241.838043 
	C306.014069,241.517792 306.160004,241.272705 306.930573,240.922882 
	C307.929413,240.129883 308.429840,239.516769 308.930298,238.903671 
	C309.547363,238.160431 310.164398,237.417191 310.724976,236.076981 
	C309.635956,234.785080 308.686981,233.720322 307.555237,233.464645 
	C304.183319,232.702911 304.138702,230.652573 305.199585,227.864319 
	C305.580566,227.456970 305.821442,227.249207 306.423523,227.017151 
	C308.219604,225.703186 309.672150,224.433960 311.124725,223.164734 
	C318.532837,217.168427 325.940948,211.172119 333.627625,205.401001 
	C332.862610,207.652557 332.230652,210.088928 330.697662,211.627701 
	C326.261780,216.080368 321.613098,220.353134 316.766205,224.355286 
	C311.771423,228.479538 311.923187,230.377197 318.054138,233.085602 
	C319.865051,231.388351 321.416016,228.717377 323.524750,228.161194 
	C330.620728,226.289581 333.546234,220.355774 337.278595,215.230957 
	C341.579224,209.325760 341.058746,207.463974 334.903137,203.943695 
	C335.741669,202.354279 336.580231,200.764862 337.984619,198.885773 
	C341.481476,197.666779 344.412476,196.737457 348.852509,195.329651 
	C348.275970,198.302475 348.195251,200.754639 347.296539,202.857162 
	C346.067261,205.733047 343.955536,208.233887 342.747894,211.115845 
	C342.193176,212.439651 342.889404,214.287659 343.018372,215.897949 
	C337.747620,222.691681 332.476898,229.485428 326.623657,236.584747 
	C323.358551,237.111191 321.585938,238.064682 322.552521,241.223511 
	C322.552521,241.223511 322.614685,241.274490 322.590454,241.306549 
z"/>
<path fill="#37B679" opacity="1.000000" stroke="none" 
	d="
M332.975739,179.854706 
	C333.021149,179.501678 333.196960,179.234436 333.981506,179.113251 
	C335.289886,178.436081 336.119934,177.698608 336.949951,176.961121 
	C336.949951,176.961121 336.979187,176.960815 337.172180,176.822235 
	C337.615417,176.460602 337.826538,176.205200 337.998505,175.917450 
	C337.998505,175.917450 337.993591,175.981232 338.293427,175.922455 
	C339.385559,175.197052 340.177856,174.530441 340.970154,173.863831 
	C340.970184,173.863846 341.023224,173.421707 341.246948,173.040314 
	C341.666229,172.422592 341.840546,172.171539 341.993622,171.905746 
	C341.993622,171.905746 341.982086,171.978210 342.231812,171.893188 
	C342.976685,171.493683 343.471863,171.179214 343.967041,170.864731 
	C346.397827,167.656448 349.348572,164.714447 351.155243,161.186539 
	C355.409424,152.879364 359.117737,144.292679 363.313171,135.494720 
	C364.103149,135.104645 364.626892,135.038940 365.383057,135.203674 
	C365.856110,136.515167 366.462585,137.662613 366.280426,138.667023 
	C364.551483,148.200241 362.739838,157.685806 357.408234,166.112427 
	C355.794159,168.663498 352.562531,171.196991 355.174713,174.971817 
	C351.989685,178.236145 348.804688,181.500473 345.168518,184.589417 
	C343.707794,185.288284 342.137054,185.979431 341.782043,187.067322 
	C339.864044,192.945038 337.966705,194.420334 332.037994,193.987946 
	C327.523651,193.658707 326.057281,190.921494 328.185028,186.829666 
	C329.161469,184.951935 330.098328,183.053604 331.053101,181.164597 
	C331.053101,181.164597 331.454132,181.025513 331.874908,180.837860 
	C332.522369,180.385040 332.749054,180.119873 332.975739,179.854706 
z"/>
<path fill="#38B66E" opacity="1.000000" stroke="none" 
	d="
M140.035614,279.550537 
	C139.822952,280.576202 139.273209,281.383728 139.467773,281.922455 
	C139.853806,282.991333 140.471268,284.110138 141.304871,284.863159 
	C149.396317,292.172302 149.737457,301.968323 149.933960,311.766479 
	C149.955856,312.858673 148.691559,314.972473 148.330353,314.907501 
	C146.583939,314.593445 144.942398,313.696350 142.388351,312.645996 
	C142.076050,326.954376 141.767227,341.103973 141.241913,355.159607 
	C141.010544,340.661316 141.024948,326.256897 140.946030,311.852936 
	C140.935425,309.917358 140.454163,307.984375 140.190842,306.050171 
	C138.554443,301.956879 136.918060,297.863617 135.263519,293.172607 
	C137.170685,292.865692 139.095993,293.156464 141.973679,293.591095 
	C141.553787,291.813019 141.448715,289.756714 140.589050,288.089569 
	C139.149124,285.297150 137.504303,282.499084 135.398392,280.206024 
	C134.262268,278.968872 131.574081,277.799561 130.326904,278.332642 
	C128.339828,279.182007 126.828438,281.241974 128.707016,284.060608 
	C129.864288,285.796967 130.222610,288.065826 130.939636,290.095612 
	C128.402359,288.970398 125.865074,287.845184 123.144623,286.420044 
	C123.163437,285.494385 123.704666,284.732880 123.516716,284.263092 
	C120.509819,276.747253 126.607048,274.330994 130.945282,271.010895 
	C132.634247,269.718323 134.568787,268.732117 136.441650,267.697174 
	C141.284363,265.021088 142.437469,265.604889 143.613983,271.131348 
	C143.737915,271.713593 144.235107,272.216400 144.825256,272.889587 
	C143.405945,275.085724 141.720505,277.148285 140.035614,279.550537 
z"/>
<path fill="#38B66E" opacity="1.000000" stroke="none" 
	d="
M175.659821,384.092590 
	C176.683899,384.845734 177.479202,385.460114 178.044205,386.241089 
	C178.947021,387.488983 180.483124,388.980164 180.290497,390.122040 
	C180.097504,391.265930 178.235962,392.339203 176.896011,393.045471 
	C166.082947,398.744995 146.276566,387.898590 144.851532,376.212372 
	C144.264954,371.402039 144.843109,366.320129 145.773392,361.533142 
	C146.053452,360.092072 149.303955,359.228271 151.577271,358.459106 
	C151.958908,359.870209 151.957001,360.922302 151.618607,362.050354 
	C147.795242,364.258972 148.487289,365.829681 151.947845,367.360168 
	C151.964355,368.132996 151.974350,368.574646 151.843475,369.378540 
	C150.551773,375.359833 154.469177,384.166290 159.491516,384.940369 
	C164.171661,385.661774 169.143173,384.492798 173.986435,384.155945 
	C174.433517,384.113495 174.880615,384.071045 175.659821,384.092590 
z"/>
<path fill="#27B385" opacity="1.000000" stroke="none" 
	d="
M359.401337,122.987595 
	C361.201202,118.494659 355.842682,119.548416 354.482025,117.066612 
	C358.306427,113.256996 362.118011,109.460167 365.962402,105.300308 
	C366.773468,104.043518 367.551758,103.149750 368.831360,102.192902 
	C369.878326,101.753784 370.423981,101.377754 370.969635,101.001717 
	C373.403503,99.135773 375.646271,96.880104 378.346039,95.556381 
	C379.860687,94.813736 382.740936,94.914772 383.887665,95.916199 
	C385.006042,96.892868 385.249939,99.606445 384.908264,101.369598 
	C384.148163,105.292000 382.782196,109.096992 381.053101,112.863998 
	C379.214478,109.828239 380.201813,104.964500 374.345276,106.105865 
	C368.921906,107.162796 365.680115,113.084427 367.980133,118.063370 
	C365.242188,119.688560 362.504211,121.313759 359.401337,122.987595 
z"/>
<path fill="#38B66E" opacity="1.000000" stroke="none" 
	d="
M367.993469,118.457977 
	C365.680115,113.084427 368.921906,107.162796 374.345276,106.105865 
	C380.201813,104.964500 379.214478,109.828239 380.688721,112.964020 
	C380.934387,113.149879 380.989685,113.549835 380.882721,113.955231 
	C380.828979,114.961121 380.882202,115.561623 380.935455,116.162117 
	C379.717316,119.542969 378.499207,122.923820 377.149292,126.894592 
	C377.023102,127.679611 377.028717,127.874725 377.034363,128.069839 
	C377.034363,128.069839 377.019409,128.009903 376.667847,128.029999 
	C374.728851,128.711090 373.003448,129.159912 371.585510,130.081696 
	C369.332672,131.546249 367.285065,133.326538 365.150635,134.973251 
	C364.626892,135.038940 364.103149,135.104645 363.383545,135.104279 
	C364.794037,129.643005 366.400421,124.247787 367.993469,118.457977 
z"/>
<path fill="#27B385" opacity="1.000000" stroke="none" 
	d="
M330.713043,181.197540 
	C330.098328,183.053604 329.161469,184.951935 328.185028,186.829666 
	C326.057281,190.921494 327.523651,193.658707 332.037994,193.987946 
	C337.966705,194.420334 339.864044,192.945038 341.782043,187.067322 
	C342.137054,185.979431 343.707794,185.288284 344.834961,184.621826 
	C342.435150,188.659103 345.550507,187.944717 347.535370,187.936844 
	C349.841675,187.927689 352.147186,187.721497 355.800873,187.530273 
	C354.565521,191.603973 353.969940,194.736679 352.687500,197.557037 
	C349.891876,203.705170 346.746582,209.694305 343.381287,215.823181 
	C342.889404,214.287659 342.193176,212.439651 342.747894,211.115845 
	C343.955536,208.233887 346.067261,205.733047 347.296539,202.857162 
	C348.195251,200.754639 348.275970,198.302475 348.852509,195.329651 
	C344.412476,196.737457 341.481476,197.666779 338.283203,198.709534 
	C336.609772,198.216049 335.251495,197.311981 333.785645,197.075851 
	C331.856659,196.765121 329.843109,196.979645 327.251038,196.612762 
	C321.945282,193.792603 323.329193,189.744568 323.936249,185.899033 
	C326.081818,184.342850 328.227417,182.786667 330.713043,181.197540 
z"/>
<path fill="#27B385" opacity="1.000000" stroke="none" 
	d="
M365.383057,135.203674 
	C367.285065,133.326538 369.332672,131.546249 371.585510,130.081696 
	C373.003448,129.159912 374.728851,128.711090 376.697327,128.039230 
	C372.551086,144.761810 368.157257,161.556198 355.467529,174.833221 
	C352.562531,171.196991 355.794159,168.663498 357.408234,166.112427 
	C362.739838,157.685806 364.551483,148.200241 366.280426,138.667023 
	C366.462585,137.662613 365.856110,136.515167 365.383057,135.203674 
z"/>
<path fill="#38B66E" opacity="1.000000" stroke="none" 
	d="
M334.677307,204.018829 
	C341.058746,207.463974 341.579224,209.325760 337.278595,215.230957 
	C333.546234,220.355774 330.620728,226.289581 323.524750,228.161194 
	C321.416016,228.717377 319.865051,231.388351 318.054138,233.085602 
	C311.923187,230.377197 311.771423,228.479538 316.766205,224.355286 
	C321.613098,220.353134 326.261780,216.080368 330.697662,211.627701 
	C332.230652,210.088928 332.862610,207.652557 333.932190,205.253021 
	C333.998260,204.539795 334.162689,204.277817 334.677307,204.018829 
z"/>
<path fill="#41B762" opacity="1.000000" stroke="none" 
	d="
M349.887878,370.472107 
	C349.212921,369.347778 348.083282,367.767273 348.079773,366.184235 
	C347.990021,325.994293 348.003387,285.803986 348.076996,245.613922 
	C348.080139,243.892441 348.831024,242.172333 349.538330,240.235489 
	C349.884705,242.389313 349.926361,244.759247 349.645721,247.897781 
	C349.196960,267.393188 349.059692,286.119965 348.984924,304.846954 
	C348.982056,305.568085 349.580505,306.291595 349.898743,307.014008 
	C349.918457,328.014252 349.938202,349.014465 349.887878,370.472107 
z"/>
<path fill="#1BB18A" opacity="1.000000" stroke="none" 
	d="
M302.108124,395.376770 
	C304.117493,394.578583 306.372894,393.359406 308.354889,393.705566 
	C316.479065,395.124390 324.186127,393.519104 331.713715,390.921356 
	C334.083221,390.103668 335.868683,387.723175 338.123718,386.403564 
	C339.947784,385.336060 342.075378,384.787323 344.437866,383.987732 
	C339.369537,392.388916 331.617584,396.925812 321.618652,396.921204 
	C315.155090,396.918243 308.691833,396.118286 302.108124,395.376770 
z"/>
<path fill="#41B762" opacity="1.000000" stroke="none" 
	d="
M130.981140,290.445679 
	C130.222610,288.065826 129.864288,285.796967 128.707016,284.060608 
	C126.828438,281.241974 128.339828,279.182007 130.326904,278.332642 
	C131.574081,277.799561 134.262268,278.968872 135.398392,280.206024 
	C137.504303,282.499084 139.149124,285.297150 140.589050,288.089569 
	C141.448715,289.756714 141.553787,291.813019 141.973679,293.591095 
	C139.095993,293.156464 137.170685,292.865692 135.109085,292.850525 
	C133.656082,292.349304 132.339371,291.572510 130.981140,290.445679 
z"/>
<path fill="#27B385" opacity="1.000000" stroke="none" 
	d="
M188.082687,356.305939 
	C194.392593,358.051880 198.704819,354.772675 202.868881,350.833832 
	C204.087509,349.681091 205.671738,348.914856 207.454865,347.941864 
	C202.452133,356.250549 195.279602,362.685394 187.293411,368.261414 
	C186.725571,368.021484 186.157730,367.781555 185.589890,367.541626 
	C186.394226,363.929382 187.198578,360.317169 188.082687,356.305939 
z"/>
<path fill="#41B762" opacity="1.000000" stroke="none" 
	d="
M336.147888,253.223282 
	C336.411011,255.169907 336.899384,257.115997 336.903839,259.063232 
	C336.985046,294.581726 337.025085,330.100372 336.991455,365.618896 
	C336.989838,367.326263 336.229553,369.032867 335.498718,370.974976 
	C335.134064,370.718658 335.093323,370.227203 335.449097,369.106140 
	C335.897003,366.317383 335.989990,364.158356 335.993439,361.999176 
	C336.051544,325.740540 336.098480,289.481903 336.147888,253.223282 
z"/>
<path fill="#FFFFFF" opacity="1.000000" stroke="none" 
	d="
M336.065796,252.857147 
	C336.098480,289.481903 336.051544,325.740540 335.993439,361.999176 
	C335.989990,364.158356 335.897003,366.317383 335.509949,368.741577 
	C335.116180,337.462585 335.050079,305.918488 335.005798,274.374390 
	C334.995087,266.737518 335.056519,259.100555 335.448792,251.235382 
	C335.869751,251.501785 335.926727,251.996399 336.065796,252.857147 
z"/>
<path fill="#37B679" opacity="1.000000" stroke="none" 
	d="
M173.577240,384.093201 
	C169.143173,384.492798 164.171661,385.661774 159.491516,384.940369 
	C154.469177,384.166290 150.551773,375.359833 152.062790,369.373596 
	C152.422958,369.006500 152.861160,368.995239 153.153412,368.962585 
	C153.638367,368.893890 153.831055,368.857819 154.139557,368.973846 
	C154.376770,369.347992 154.526566,369.548920 154.704712,369.728729 
	C157.163895,380.324615 163.300690,383.289215 173.577240,384.093201 
z"/>
<path fill="#1BB18A" opacity="1.000000" stroke="none" 
	d="
M300.016785,237.839859 
	C294.355499,238.953339 288.687683,240.225937 282.863556,236.461533 
	C288.973572,233.640839 295.083588,230.820160 301.462524,228.272629 
	C299.280640,231.297119 297.351318,234.144638 300.016785,237.839859 
z"/>
<path fill="#1BB18A" opacity="1.000000" stroke="none" 
	d="
M323.622437,186.048294 
	C323.329193,189.744568 321.945282,193.792603 326.797638,196.546356 
	C323.655640,196.872940 320.325409,197.158966 317.063751,196.807922 
	C315.976196,196.690857 314.471558,195.049866 314.264404,193.905243 
	C314.106293,193.031296 315.524994,191.625870 316.538208,190.836960 
	C318.692902,189.159317 321.040253,187.729156 323.622437,186.048294 
z"/>
<path fill="#41B762" opacity="1.000000" stroke="none" 
	d="
M154.023758,368.821777 
	C153.831055,368.857819 153.638367,368.893890 153.166077,368.494385 
	C152.870377,348.783142 152.854263,329.507538 152.838165,310.231903 
	C152.835220,309.678589 152.832260,309.125244 152.834534,307.787415 
	C152.903046,305.999329 152.966293,304.995728 153.029541,303.992157 
	C153.198151,303.977386 153.366745,303.962616 153.787262,303.921906 
	C154.331039,304.412842 154.622910,304.929718 154.637619,306.116821 
	C154.277145,308.932770 154.126526,311.078339 154.121048,313.224335 
	C154.073792,331.756775 154.052673,350.289276 154.023758,368.821777 
z"/>
<path fill="#27B385" opacity="1.000000" stroke="none" 
	d="
M300.421875,237.905182 
	C297.351318,234.144638 299.280640,231.297119 301.836426,228.227997 
	C301.941437,227.910217 301.981903,227.949997 302.344360,227.963913 
	C303.485138,227.999710 304.263489,228.021591 305.041840,228.043472 
	C304.138702,230.652573 304.183319,232.702911 307.555237,233.464645 
	C308.686981,233.720322 309.635956,234.785080 310.808228,235.796143 
	C307.574310,236.731659 304.200623,237.351074 300.421875,237.905182 
z"/>
<path fill="#648DD7" opacity="1.000000" stroke="none" 
	d="
M154.139557,368.973846 
	C154.052673,350.289276 154.073792,331.756775 154.121048,313.224335 
	C154.126526,311.078339 154.277145,308.932770 154.554962,306.429260 
	C154.773071,326.998138 154.796677,347.924713 154.762497,369.290039 
	C154.526566,369.548920 154.376770,369.347992 154.139557,368.973846 
z"/>
<path fill="#648DD7" opacity="1.000000" stroke="none" 
	d="
M140.126404,306.512268 
	C140.454163,307.984375 140.935425,309.917358 140.946030,311.852936 
	C141.024948,326.256897 141.010544,340.661316 141.069534,355.533142 
	C141.085831,356.457977 141.057999,356.915314 141.028564,358.131165 
	C140.722778,361.242950 140.418610,363.596252 140.114426,365.949524 
	C140.096939,346.291138 140.079468,326.632782 140.126404,306.512268 
z"/>
<path fill="#648DD7" opacity="1.000000" stroke="none" 
	d="
M349.978210,306.549530 
	C349.580505,306.291595 348.982056,305.568085 348.984924,304.846954 
	C349.059692,286.119965 349.196960,267.393188 349.581116,248.338669 
	C349.911743,267.368988 349.984711,286.727020 349.978210,306.549530 
z"/>
<path fill="#1BB18A" opacity="1.000000" stroke="none" 
	d="
M153.726532,202.395340 
	C154.006927,200.849731 154.287323,199.304138 154.799835,197.466431 
	C154.993347,214.820679 154.954742,232.467041 154.610001,250.230286 
	C154.156998,248.529373 153.892151,246.712265 153.881958,244.893723 
	C153.802536,230.727753 153.772110,216.561508 153.726532,202.395340 
z"/>
<path fill="#41B762" opacity="1.000000" stroke="none" 
	d="
M153.584213,202.736725 
	C153.772110,216.561508 153.802536,230.727753 153.881958,244.893723 
	C153.892151,246.712265 154.156998,248.529373 154.537567,250.696899 
	C154.830078,251.487137 154.888916,251.927628 154.890228,252.699066 
	C154.223892,251.934921 153.084274,250.838867 153.086227,249.744873 
	C153.114182,234.189133 153.296707,218.633667 153.584213,202.736725 
z"/>
<path fill="#1BB18A" opacity="1.000000" stroke="none" 
	d="
M141.091690,195.380661 
	C141.428345,195.682770 141.934418,196.460449 141.929245,197.234726 
	C141.832962,211.607010 141.675781,225.978897 141.345734,240.733887 
	C141.114395,226.029495 141.068741,210.942062 141.091690,195.380661 
z"/>
<path fill="#1BB18A" opacity="1.000000" stroke="none" 
	d="
M322.587830,382.916565 
	C317.090881,386.531311 310.756012,384.443604 304.239380,384.151154 
	C305.937531,383.636841 307.969147,383.111694 310.017731,383.034180 
	C314.077301,382.880524 318.146210,382.973969 322.587830,382.916565 
z"/>
<path fill="#648DD7" opacity="1.000000" stroke="none" 
	d="
M190.744339,166.510956 
	C182.308044,166.881943 173.620438,166.909470 164.466629,166.900482 
	C169.681580,166.603775 175.360931,166.285736 181.044647,166.106247 
	C184.190338,166.006897 187.343338,166.139450 190.744339,166.510956 
z"/>
<path fill="#1BB18A" opacity="1.000000" stroke="none" 
	d="
M263.658875,201.016968 
	C264.116455,205.611893 260.854858,208.146622 257.279053,210.812378 
	C259.097015,207.689606 261.222351,204.431335 263.658875,201.016968 
z"/>
<path fill="#1BB18A" opacity="1.000000" stroke="none" 
	d="
M322.851379,241.171051 
	C321.585938,238.064682 323.358551,237.111191 326.427551,236.856522 
	C325.592682,238.254654 324.371460,239.686630 322.851379,241.171051 
z"/>
<path fill="#38B66E" opacity="1.000000" stroke="none" 
	d="
M140.071899,366.297882 
	C140.418610,363.596252 140.722778,361.242950 141.068832,358.473145 
	C141.182297,361.490356 141.253891,364.924042 141.128754,368.711853 
	C140.631149,368.259369 140.330276,367.452820 140.071899,366.297882 
z"/>
<path fill="#27B385" opacity="1.000000" stroke="none" 
	d="
M310.773010,223.106979 
	C309.672150,224.433960 308.219604,225.703186 306.394135,226.716339 
	C306.003143,226.260117 305.985077,226.059952 305.967010,225.859802 
	C307.451752,224.922943 308.936523,223.986084 310.773010,223.106979 
z"/>
<path fill="#1BB18A" opacity="1.000000" stroke="none" 
	d="
M256.622559,211.103027 
	C256.130524,212.560913 255.323380,214.143967 254.190918,215.846741 
	C254.679550,214.387024 255.493500,212.807617 256.622559,211.103027 
z"/>
<path fill="#27B385" opacity="1.000000" stroke="none" 
	d="
M336.631470,176.983185 
	C336.119934,177.698608 335.289886,178.436081 334.211029,179.022125 
	C334.745819,178.248871 335.529419,177.627060 336.631470,176.983185 
z"/>
<path fill="#1BB18A" opacity="1.000000" stroke="none" 
	d="
M305.631226,225.922180 
	C305.985077,226.059952 306.003143,226.260117 306.050598,226.761078 
	C305.821442,227.249207 305.580566,227.456970 305.199585,227.864319 
	C304.263489,228.021591 303.485138,227.999710 302.318695,227.958023 
	C303.052216,227.286987 304.173859,226.635773 305.631226,225.922180 
z"/>
<path fill="#27B385" opacity="1.000000" stroke="none" 
	d="
M340.646973,173.926331 
	C340.177856,174.530441 339.385559,175.197052 338.263397,175.911469 
	C338.730316,175.302460 339.527069,174.645645 340.646973,173.926331 
z"/>
<path fill="#41B762" opacity="1.000000" stroke="none" 
	d="
M334.763245,372.947540 
	C334.798828,373.518951 334.555511,374.246521 334.141907,374.922302 
	C334.142517,374.281555 334.313446,373.692657 334.763245,372.947540 
z"/>
<path fill="#27B385" opacity="1.000000" stroke="none" 
	d="
M381.205872,116.016632 
	C380.882202,115.561623 380.828979,114.961121 380.901855,114.156204 
	C381.177429,114.591576 381.326874,115.231361 381.205872,116.016632 
z"/>
<path fill="#1BB18A" opacity="1.000000" stroke="none" 
	d="
M370.661102,101.033234 
	C370.423981,101.377754 369.878326,101.753784 369.128540,102.067398 
	C369.400452,101.691551 369.876495,101.378143 370.661102,101.033234 
z"/>
<path fill="#27B385" opacity="1.000000" stroke="none" 
	d="
M191.042328,348.251434 
	C190.969391,348.604858 190.778427,349.232819 190.373810,349.951355 
	C190.414856,349.536621 190.669556,349.031281 191.042328,348.251434 
z"/>
<path fill="#1BB18A" opacity="1.000000" stroke="none" 
	d="
M308.655090,239.022766 
	C308.429840,239.516769 307.929413,240.129883 307.141357,240.856735 
	C307.362457,240.360947 307.871155,239.751419 308.655090,239.022766 
z"/>
<path fill="#1BB18A" opacity="1.000000" stroke="none" 
	d="
M251.319275,237.975204 
	C251.466614,237.463974 251.893585,236.841599 252.579468,236.084091 
	C252.425201,236.587326 252.012054,237.225693 251.319275,237.975204 
z"/>
<path fill="#27B385" opacity="1.000000" stroke="none" 
	d="
M343.658020,170.925446 
	C343.471863,171.179214 342.976685,171.493683 342.195557,171.887299 
	C342.389435,171.639694 342.869202,171.312927 343.658020,170.925446 
z"/>
<path fill="#27B385" opacity="1.000000" stroke="none" 
	d="
M377.263062,127.978210 
	C377.028717,127.874725 377.023102,127.679611 377.016937,127.191216 
	C377.174835,127.227478 377.333313,127.557030 377.263062,127.978210 
z"/>
<path fill="#1BB18A" opacity="1.000000" stroke="none" 
	d="
M304.726685,243.037277 
	C304.826904,243.260437 304.621460,243.510498 304.160645,243.852448 
	C304.128601,243.693192 304.300537,243.399811 304.726685,243.037277 
z"/>
<path fill="#1BB18A" opacity="1.000000" stroke="none" 
	d="
M305.751068,241.958237 
	C305.790680,242.116379 305.587006,242.394714 305.175537,242.828583 
	C305.147736,242.682220 305.327759,242.380325 305.751068,241.958237 
z"/>
<path fill="#1BB18A" opacity="1.000000" stroke="none" 
	d="
M251.037659,238.668030 
	C250.871597,238.676697 250.846115,238.443222 251.020126,238.087799 
	C251.086914,237.977173 251.045563,238.437210 251.037659,238.668030 
z"/>
<path fill="#27B385" opacity="1.000000" stroke="none" 
	d="
M341.744812,171.993423 
	C341.840546,172.171539 341.666229,172.422592 341.316132,172.828674 
	C341.273071,172.692673 341.384521,172.386887 341.744812,171.993423 
z"/>
<path fill="#27B385" opacity="1.000000" stroke="none" 
	d="
M332.726898,179.965820 
	C332.749054,180.119873 332.522369,180.385040 332.084412,180.804047 
	C332.074799,180.664246 332.276428,180.370590 332.726898,179.965820 
z"/>
<path fill="#27B385" opacity="1.000000" stroke="none" 
	d="
M337.747406,176.006027 
	C337.826538,176.205200 337.615417,176.460602 337.164368,176.831207 
	C337.141205,176.684067 337.318756,176.389343 337.747406,176.006027 
z"/>
<path fill="#27B385" opacity="1.000000" stroke="none" 
	d="
M152.665298,310.578430 
	C152.854263,329.507538 152.870377,348.783142 152.873825,368.527008 
	C152.861160,368.995239 152.422958,369.006500 152.203644,369.011414 
	C151.974350,368.574646 151.964355,368.132996 151.961548,366.938721 
	C151.964172,364.782196 151.959641,363.378265 151.955109,361.974365 
	C151.957001,360.922302 151.958908,359.870209 151.954041,358.424744 
	C151.961166,344.295746 151.955383,330.560120 152.011169,316.824738 
	C152.019150,314.857513 152.324631,312.891510 152.665298,310.578430 
z"/>
<path fill="#27B385" opacity="1.000000" stroke="none" 
	d="
M152.858032,304.237579 
	C152.966293,304.995728 152.903046,305.999329 152.820892,307.372620 
	C152.763504,306.655914 152.725021,305.569458 152.858032,304.237579 
z"/>
<path fill="#37B679" opacity="1.000000" stroke="none" 
	d="
M151.618622,362.050354 
	C151.959641,363.378265 151.964172,364.782196 151.955017,366.607574 
	C148.487289,365.829681 147.795242,364.258972 151.618622,362.050354 
z"/>
</svg>