<svg version="1.1" id="Layer_1" xmlns="http://www.w3.org/2000/svg" xmlns:xlink="http://www.w3.org/1999/xlink" x="0px" y="0px"
	 width="100%" viewBox="0 0 1024 1024" enable-background="new 0 0 1024 1024" xml:space="preserve">
<path opacity="1.000000" stroke="none" 
	d="
M340.620544,853.541687 
	C337.490540,858.881714 334.921814,864.184631 330.407654,868.080322 
	C328.926697,869.358276 327.236206,870.975830 325.095856,869.723755 
	C322.951080,868.468994 323.536377,866.170105 323.918579,864.275391 
	C340.405823,782.544922 356.333557,700.677612 382.524536,621.287842 
	C383.314087,618.894531 383.653809,616.478027 383.680267,613.941772 
	C384.228058,561.375488 394.351074,510.617828 412.634796,461.416565 
	C432.543335,407.843079 462.348206,360.170593 499.740082,317.228180 
	C541.127075,269.697571 589.687256,230.732071 643.919678,198.739960 
	C668.627319,184.164688 694.193848,171.253571 720.164673,159.115814 
	C724.543884,157.069153 729.015991,155.264938 733.748718,154.178650 
	C741.956665,152.294632 746.430847,155.618561 746.110901,164.066299 
	C745.657593,176.033554 743.436951,187.803085 740.933105,199.489456 
	C733.430481,234.508316 723.783997,268.885864 710.107117,302.059814 
	C708.359558,306.298553 706.167847,309.930023 702.719238,313.084381 
	C681.498962,332.494202 658.108459,348.411072 631.013184,358.517426 
	C630.219482,358.813477 629.513733,359.216370 629.185852,360.495972 
	C631.334045,362.493683 634.107971,361.686615 636.544983,361.496552 
	C650.299438,360.423920 663.871887,358.080231 677.362000,355.240295 
	C679.469177,354.796661 681.814880,353.827301 683.471863,355.736328 
	C685.227539,357.758972 684.319275,360.199768 683.308289,362.326141 
	C666.926086,396.781799 650.400940,431.201080 629.917358,463.444458 
	C622.498535,475.122406 610.534546,482.593964 598.822815,489.686676 
	C580.872131,500.557648 562.754639,511.172638 542.976562,518.538269 
	C542.207214,518.824829 541.444031,519.199646 541.062073,521.222656 
	C547.291016,520.871094 553.330017,520.937683 559.238342,520.091553 
	C566.295288,519.080933 573.224304,517.203369 580.243469,515.886414 
	C582.431946,515.475830 585.202209,514.440918 586.756348,516.712830 
	C588.393433,519.105896 586.762939,521.541138 585.362915,523.613220 
	C577.854309,534.726318 568.350891,544.136841 559.053955,553.663025 
	C523.389587,590.206848 483.828705,621.908936 440.046417,648.251587 
	C436.259491,650.530029 433.891327,653.411865 432.370819,657.561951 
	C419.142151,693.667542 407.898163,730.382507 398.430878,767.639282 
	C396.619263,774.768555 393.525024,780.804199 388.344849,786.170959 
	C369.117188,806.090881 353.949127,828.955933 340.620544,853.541687 
M417.667664,631.246399 
	C420.092285,625.047668 422.458221,618.825256 424.950653,612.653931 
	C447.377411,557.124756 473.251587,503.307312 504.274628,452.010559 
	C530.523010,408.608704 559.951111,367.492523 592.143127,328.324371 
	C598.191345,320.965454 604.126038,313.513123 610.113098,306.103882 
	C609.589783,305.696899 609.066467,305.289886 608.543152,304.882874 
	C544.162842,364.432404 491.480194,433.212341 450.649628,510.826233 
	C409.937714,588.214600 381.437195,669.880676 369.693817,756.897522 
	C373.668488,747.381592 377.272980,737.742554 380.918152,728.118958 
	C393.060516,696.061707 405.217468,664.010071 417.667664,631.246399 
z"/>
<path opacity="1.000000" stroke="none" 
	d="
M752.563599,560.786133 
	C755.430969,558.690735 754.844849,557.237732 752.709534,555.113098 
	C723.423462,525.973572 694.237427,496.733582 665.031189,467.513824 
	C663.500488,465.982452 662.006470,464.414459 660.501160,462.857910 
	C659.357849,461.675690 658.833252,460.389984 659.798889,458.825226 
	C664.847412,450.644775 669.888306,442.459564 674.733948,434.597107 
	C677.575684,434.597473 678.658447,436.196075 679.924194,437.472260 
	C715.468872,473.309692 751.007385,509.153198 786.545532,544.997131 
	C787.366516,545.825195 788.191406,546.650757 788.982605,547.506836 
	C795.714417,554.790894 796.064941,560.467773 789.320862,567.648376 
	C780.316284,577.235718 770.936462,586.474182 761.623169,595.767578 
	C733.794556,623.536682 705.923950,651.263855 678.059937,678.997498 
	C671.206360,685.819092 667.015686,686.742126 659.948792,683.082031 
	C653.584351,679.785767 649.568115,671.737488 650.718262,664.580078 
	C651.261719,661.197754 653.738770,659.096375 655.960449,656.883728 
	C688.065308,624.910156 720.195251,592.961792 752.563599,560.786133 
z"/>
<path opacity="1.000000" stroke="none" 
	d="
M292.967163,624.034485 
	C273.967834,605.082336 255.150970,586.454529 236.516769,567.645813 
	C230.508118,561.580872 230.584366,555.542358 236.025055,549.048767 
	C236.452194,548.539001 236.911423,548.053589 237.381927,547.583008 
	C274.002258,510.960968 310.559143,474.275116 347.290375,437.764648 
	C357.603149,427.513794 370.345642,431.375366 374.577911,445.403564 
	C376.195587,450.765472 373.884399,454.521088 370.649139,457.994781 
	C365.429718,463.598938 360.002563,469.012848 354.582153,474.426025 
	C328.185089,500.788330 301.759857,527.122437 275.350464,553.472473 
	C274.063110,554.756897 272.831329,556.097107 271.620514,557.362366 
	C272.103271,560.142090 274.246368,561.393005 275.831360,562.981445 
	C300.651672,587.855164 325.458710,612.742798 350.428406,637.466064 
	C353.872894,640.876587 354.548706,643.954590 352.976105,648.514099 
	C350.122070,656.788879 347.952942,665.299927 345.060272,675.212158 
	C326.676483,658.226929 310.210327,640.982727 292.967163,624.034485 
z"/>
</svg>